:SAMPLES-PER-SECOND 30
:FULLY-SPECIFIED
:DEGREES
1440
root  -49.0474 40.1277 18.8852 178.771 -22.1481 175.898
RightUpLeg  9.38091 -23.3885 -23.6982
RightLeg  14.6559 -5.8953 -1.35174
RightFoot  -7.67816 -0.118379 2.1084
RightToes  6.35927e-011 1.30204e-014 -6.03759e-014
Spine  6.03697 0.280575 4.10379
Spine1  7.91165 1.94536 -6.66157
HEad  -29.6039 33.7347 33.0644
LeftShoulder1  0.182112 3.00004 -30.0295
LeftArm  -13.0365 9.69325 -36.1792
LeftForeArm  7.52289 -23.7796 -4.68172
LeftHand  -0.0252431 5.31906 7.73727
RightShoulder  -0.548867 -5.08465 27.9297
RightArm  18.5378 -0.0471804 49.3341
RightForeArm  -5.56202 29.2011 6.63596
RightHand  -1.07729 7.59641 -9.95279
LeftUpLeg  -7.14232 10.118 3.37936
LeftLeg  8.02455 27.9859 0.205125
LeftFoot  3.6616 -0.262333 1.82668
LeftToes  -7.16024e-010 4.79583e-011 -5.98286e-011
1441
root  -48.1981 40.15 19.2392 178.993 -16.1757 176.108
RightUpLeg  10.0225 -27.0076 -25.1254
RightLeg  12.7017 -16.1873 -1.68838
RightFoot  -6.98948 -0.0956345 1.26255
RightToes  6.35927e-011 1.30204e-014 -6.03759e-014
Spine  5.78236 0.569885 4.76543
Spine1  7.64125 2.33307 -6.56971
HEad  -26.2743 38.8339 41.6473
LeftShoulder1  0.182556 2.99739 -29.9283
LeftArm  -13.8133 11.2316 -36.0491
LeftForeArm  7.85935 -25.6831 -5.09358
LeftHand  -0.0574837 4.78349 7.46328
RightShoulder  -0.554983 -5.1023 27.9335
RightArm  19.919 0.610284 50.2904
RightForeArm  -4.6509 31.5879 7.19688
RightHand  -1.07199 7.38683 -10.0576
LeftUpLeg  -6.76614 11.103 5.24065
LeftLeg  6.59854 32.5208 0.0139263
LeftFoot  4.57614 -0.156166 0.916448
LeftToes  -7.16024e-010 4.79583e-011 -5.98286e-011
1442
root  -47.2336 40.1079 19.5981 179.24 -10.049 175.92
RightUpLeg  10.1056 -29.8001 -26.1646
RightLeg  11.7994 -24.0518 -0.94085
RightFoot  -6.64175 -0.210009 3.96563
RightToes  6.35927e-011 1.30204e-014 -6.03759e-014
Spine  5.63075 0.6753 4.56096
Spine1  7.40096 2.4253 -6.51445
HEad  -19.7322 40.9069 49.8999
LeftShoulder1  0.142889 3.10747 -29.9297
LeftArm  -13.4328 12.832 -35.4107
LeftForeArm  7.29178 -27.1797 -5.46478
LeftHand  -0.0781781 4.3556 6.78898
RightShoulder  -0.546772 -5.08327 27.826
RightArm  21.8852 0.983541 51.5762
RightForeArm  -3.8359 33.6557 7.70923
RightHand  -1.07984 7.52644 -10.0263
LeftUpLeg  -6.34116 12.0755 6.96692
LeftLeg  5.81881 36.5634 0.0177452
LeftFoot  4.93994 -0.0862107 0.392589
LeftToes  -7.16024e-010 4.79583e-011 -5.98286e-011
1443
root  -46.1787 40.0152 19.97 179.129 -4.01939 175.897
RightUpLeg  9.45925 -32.7798 -26.1385
RightLeg  11.4388 -24.6017 0.0835017
RightFoot  -5.62139 -0.463836 8.44232
RightToes  6.35927e-011 1.30204e-014 -6.03759e-014
Spine  5.9288 0.523188 4.39865
Spine1  7.08248 2.26769 -6.71588
HEad  -9.84304 43.2126 62.3292
LeftShoulder1  0.0800584 3.28174 -29.9266
LeftArm  -12.8925 14.3639 -34.6981
LeftForeArm  7.14107 -28.2339 -5.71886
LeftHand  -0.0784087 4.32965 6.67741
RightShoulder  -0.568856 -5.14017 27.9877
RightArm  24.1953 1.12998 52.5781
RightForeArm  -2.67119 35.3188 8.11379
RightHand  -1.08258 7.84323 -9.82403
LeftUpLeg  -5.79681 13.3536 9.15066
LeftLeg  6.09766 39.2149 0.440232
LeftFoot  4.50866 -0.0373804 0.0727535
LeftToes  -7.16024e-010 4.79583e-011 -5.98286e-011
1444
root  -45.0774 39.9501 20.3428 178.827 2.05354 176.505
RightUpLeg  6.712 -35.8578 -23.6671
RightLeg  12.4948 -18.4676 0.0283416
RightFoot  -3.8955 -0.658683 9.78831
RightToes  6.35927e-011 1.30204e-014 -6.03759e-014
Spine  6.45173 0.3618 4.91836
Spine1  6.81048 2.09561 -6.68428
HEad  2.76744 45.5597 79.6164
LeftShoulder1  0.0329624 3.41245 -29.942
LeftArm  -12.7883 15.7257 -34.5593
LeftForeArm  7.86074 -28.584 -5.76275
LeftHand  -0.0685553 4.55523 6.99979
RightShoulder  -0.613789 -5.25356 28.3433
RightArm  26.3907 0.990098 52.8171
RightForeArm  -0.954603 36.4927 8.35828
RightHand  -1.04272 7.83864 -9.4796
LeftUpLeg  -4.73144 14.7111 12.0956
LeftLeg  6.10963 39.5893 0.761268
LeftFoot  3.14381 0.0882334 -0.861608
LeftToes  -7.16024e-010 4.79583e-011 -5.98286e-011
1445
root  -43.941 39.94 20.6992 178.83 8.19105 177.501
RightUpLeg  1.78013 -37.3068 -18.4354
RightLeg  14.8806 -11.3126 -1.23232
RightFoot  -3.1559 -0.530599 7.05305
RightToes  6.35927e-011 1.30204e-014 -6.03759e-014
Spine  6.5377 0.350423 5.57638
Spine1  6.92921 1.96791 -6.01446
HEad  14.9579 44.5615 95.8289
LeftShoulder1  0.0163128 3.45857 -29.9067
LeftArm  -12.622 16.9771 -35.0872
LeftForeArm  8.494 -28.3406 -5.67057
LeftHand  -0.0648678 4.60227 6.8353
RightShoulder  -0.61671 -5.2566 28.4472
RightArm  28.4097 0.693532 52.5325
RightForeArm  0.440953 36.7099 8.3414
RightHand  -0.975669 7.51309 -9.10637
LeftUpLeg  -3.42336 15.3119 15.0076
LeftLeg  5.06741 36.2771 0.932739
LeftFoot  0.570012 0.223972 -2.19492
LeftToes  -7.16024e-010 4.79583e-011 -5.98286e-011
1446
root  -42.776 39.9413 21.0176 179.115 13.8711 178.373
RightUpLeg  -2.64406 -35.283 -12.7611
RightLeg  17.0339 -8.41465 -2.44123
RightFoot  -4.2757 -0.265273 3.80494
RightToes  6.35927e-011 1.30204e-014 -6.03759e-014
Spine  6.15952 0.239547 5.61071
Spine1  7.29823 1.59038 -4.85968
HEad  24.0045 40.4134 107.389
LeftShoulder1  0.00765377 3.48258 -29.8319
LeftArm  -11.7896 18.2453 -35.6294
LeftForeArm  8.60908 -28.0491 -5.59563
LeftHand  -0.0639636 4.51549 5.9442
RightShoulder  -0.56145 -5.1106 28.1575
RightArm  30.3865 0.420118 52.1651
RightForeArm  0.213721 35.4365 7.9841
RightHand  -0.929847 7.24922 -8.86671
LeftUpLeg  -2.50429 14.6751 16.8936
LeftLeg  3.84036 27.9267 1.71571
LeftFoot  -3.10622 0.191436 -2.3156
LeftToes  -7.16024e-010 4.79583e-011 -5.98286e-011
1447
root  -41.6373 39.9276 21.2763 179.239 18.5994 178.934
RightUpLeg  -4.4564 -31.7566 -9.05717
RightLeg  17.9982 -8.22819 -2.70134
RightFoot  -6.12759 -0.144894 2.30131
RightToes  6.35927e-011 1.30204e-014 -6.03759e-014
Spine  5.93962 -0.163949 5.09564
Spine1  7.39663 0.8324 -3.41432
HEad  31.5989 34.4684 118.785
LeftShoulder1  -0.0202521 3.55976 -29.9982
LeftArm  -10.5466 19.1958 -35.703
LeftForeArm  9.24349 -27.7622 -5.49409
LeftHand  -0.0504022 4.70161 4.98186
RightShoulder  -0.530805 -5.03439 27.8725
RightArm  31.8837 0.160001 51.5086
RightForeArm  -1.89082 32.6341 7.32633
RightHand  -0.908773 7.07567 -8.78663
LeftUpLeg  -2.11392 13.2473 17.6007
LeftLeg  3.4328 15.5011 3.08937
LeftFoot  -6.70893 0.0708589 -0.731485
LeftToes  -7.16024e-010 4.79583e-011 -5.98286e-011
1448
root  -40.6025 39.8979 21.4532 179.016 22.596 179.226
RightUpLeg  -4.57119 -28.4567 -7.04413
RightLeg  18.2543 -8.00774 -2.05975
RightFoot  -7.52793 -0.0993611 1.44933
RightToes  6.35927e-011 1.30204e-014 -6.03759e-014
Spine  6.07448 -0.609149 4.84703
Spine1  7.29685 0.133539 -2.08609
HEad  38.0436 27.4786 131.206
LeftShoulder1  -0.0699671 3.69491 -30.4752
LeftArm  -9.56074 19.1674 -35.813
LeftForeArm  11.1233 -26.9027 -5.19495
LeftHand  -0.0331096 5.1324 4.45267
RightShoulder  -0.576716 -5.16633 27.9222
RightArm  32.1504 -0.0715539 50.1431
RightForeArm  -5.25676 28.5234 6.39449
RightHand  -0.87513 6.68594 -8.72926
LeftUpLeg  -2.37191 11.0209 17.4002
LeftLeg  5.02564 4.03374 3.98143
LeftFoot  -8.8749 0.0402225 0.471852
LeftToes  -7.16024e-010 4.79583e-011 -5.98286e-011
1449
root  -39.6953 39.8645 21.5533 178.626 26.7287 179.297
RightUpLeg  -4.44598 -24.5179 -5.63559
RightLeg  18.5866 -8.04178 -1.33057
RightFoot  -8.58375 -0.0645802 0.258299
RightToes  6.35927e-011 1.30204e-014 -6.03759e-014
Spine  6.36792 -0.705893 5.49107
Spine1  7.36818 0.104223 -1.68995
HEad  42.4537 21.0695 140.742
LeftShoulder1  -0.111992 3.8071 -30.8219
LeftArm  -9.0804 18.2303 -36.7929
LeftForeArm  13.4391 -25.4802 -4.75118
LeftHand  -0.0230245 5.44529 4.24663
RightShoulder  -0.62377 -5.29585 28.0854
RightArm  29.9344 0.0582745 48.3167
RightForeArm  -8.46843 22.9051 5.75574
RightHand  -0.821715 5.95933 -8.70834
LeftUpLeg  -3.20465 6.29607 16.6623
LeftLeg  9.08109 -0.153914 2.96261
LeftFoot  -9.45509 0.0617843 -0.268291
LeftToes  -7.16024e-010 4.79583e-011 -5.98286e-011
1450
root  -38.8628 39.8492 21.6054 178.226 31.3259 179.149
RightUpLeg  -4.29318 -20.1934 -4.35119
RightLeg  18.7462 -8.26648 -0.953379
RightFoot  -9.65341 -0.0545486 -0.704945
RightToes  6.35927e-011 1.30204e-014 -6.03759e-014
Spine  6.67861 -0.474492 6.72362
Spine1  7.60003 0.692499 -2.32074
HEad  45.7931 15.6297 147.287
LeftShoulder1  -0.107121 3.79471 -30.6856
LeftArm  -8.88992 17.3402 -38.5772
LeftForeArm  15.2485 -24.4733 -4.43469
LeftHand  -0.0199263 5.55522 4.10295
RightShoulder  -0.582392 -5.18139 27.951
RightArm  21.6545 0.920531 46.5054
RightForeArm  -7.44854 15.3706 6.86424
RightHand  -0.772155 4.94929 -8.95198
LeftUpLeg  -4.43729 1.9208 15.3059
LeftLeg  14.1388 0.726288 1.00247
LeftFoot  -9.16843 0.0907513 -1.87355
LeftToes  -7.16024e-010 4.79583e-011 -5.98286e-011
